<svg width="835" height="113" viewBox="0 0 835 113" fill="none" xmlns="http://www.w3.org/2000/svg">
<g filter="url(#filter0_f_3_9)">
<rect x="10" y="25" width="808" height="61" rx="30.5" fill="url(#paint0_linear_3_9)"/>
</g>
<rect x="10" y="25" width="808" height="61" rx="30.5" fill="url(#paint1_linear_3_9)"/>
<g filter="url(#filter1_f_3_9)">
<circle cx="778.5" cy="56.5" r="26.5" fill="#36C1ED"/>
</g>
<g filter="url(#filter2_d_3_9)">
<circle cx="778.5" cy="56.5" r="26.5" fill="#36C1ED"/>
<circle cx="778.5" cy="56.5" r="26" stroke="white"/>
</g>
<path d="M769.25 39.4785L797 55.5L769.25 71.5215V39.4785Z" fill="#D6EAF0" stroke="white"/>
<path d="M94.2954 68C93.0367 68 91.8954 67.712 90.8714 67.136C89.8474 66.5387 89.026 65.7493 88.4074 64.768C87.81 63.7653 87.5114 62.6347 87.5114 61.376C87.5114 60.4373 87.714 59.5627 88.1194 58.752C88.546 57.92 89.1114 57.2053 89.8154 56.608C89.1327 56.032 88.5887 55.3493 88.1834 54.56C87.7994 53.7707 87.6074 52.9387 87.6074 52.064C87.6074 50.8267 87.906 49.728 88.5034 48.768C89.1007 47.7867 89.9007 47.0187 90.9034 46.464C91.906 45.888 93.0154 45.6 94.2314 45.6H103.671V50.112L95.0634 50.08C94.658 50.08 94.2847 50.176 93.9434 50.368C93.602 50.56 93.3247 50.816 93.1114 51.136C92.9194 51.456 92.8234 51.8293 92.8234 52.256C92.8234 52.6613 92.9194 53.0347 93.1114 53.376C93.3247 53.696 93.602 53.952 93.9434 54.144C94.2847 54.3147 94.658 54.4 95.0634 54.4H102.583V58.88H95.2234C94.7754 58.88 94.37 58.9867 94.0074 59.2C93.6447 59.4133 93.3567 59.6907 93.1434 60.032C92.93 60.3733 92.8234 60.768 92.8234 61.216C92.8234 61.6427 92.93 62.0373 93.1434 62.4C93.3567 62.7413 93.6447 63.008 94.0074 63.2C94.37 63.392 94.7754 63.488 95.2234 63.488H103.671V68H94.2954ZM106.778 68V58.56C106.778 57.1947 107.109 55.9573 107.77 54.848C108.431 53.7387 109.37 52.8533 110.586 52.192C111.823 51.5307 113.285 51.2 114.97 51.2C116.677 51.2 118.127 51.5307 119.322 52.192C120.538 52.8533 121.466 53.7387 122.106 54.848C122.746 55.9573 123.066 57.1947 123.066 58.56V68H118.106V58.688C118.106 58.112 117.967 57.5893 117.69 57.12C117.413 56.6293 117.029 56.2453 116.538 55.968C116.069 55.6693 115.535 55.52 114.938 55.52C114.319 55.52 113.765 55.6693 113.274 55.968C112.805 56.2453 112.431 56.6293 112.154 57.12C111.877 57.5893 111.738 58.112 111.738 58.688V68H106.778ZM132.794 68C131.279 68 130.095 67.5733 129.242 66.72C128.389 65.8453 127.962 64.672 127.962 63.2V47.584H132.954V62.912C132.954 63.168 133.039 63.392 133.21 63.584C133.402 63.7547 133.626 63.84 133.882 63.84H137.466V68H132.794ZM125.274 55.648V51.584H137.466V55.648H125.274ZM140.369 68V56.416C140.369 54.9227 140.795 53.7493 141.649 52.896C142.502 52.0427 143.686 51.616 145.201 51.616H149.969V55.648H146.417C146.118 55.648 145.862 55.7547 145.649 55.968C145.435 56.16 145.329 56.416 145.329 56.736V68H140.369ZM160.76 68C158.904 68 157.272 67.6587 155.864 66.976C154.456 66.272 153.357 65.312 152.568 64.096C151.8 62.8587 151.416 61.4293 151.416 59.808C151.416 58.016 151.789 56.48 152.536 55.2C153.283 53.92 154.275 52.9387 155.512 52.256C156.771 51.552 158.157 51.2 159.672 51.2C161.4 51.2 162.84 51.5627 163.992 52.288C165.165 53.0133 166.051 54.0053 166.648 55.264C167.245 56.5013 167.544 57.92 167.544 59.52C167.544 59.7973 167.523 60.128 167.48 60.512C167.459 60.8747 167.427 61.1627 167.384 61.376H156.632C156.76 61.9307 157.005 62.4 157.368 62.784C157.731 63.168 158.189 63.456 158.744 63.648C159.299 63.8187 159.917 63.904 160.6 63.904H165.624V68H160.76ZM156.504 58.272H162.744C162.701 57.9307 162.637 57.6 162.552 57.28C162.467 56.96 162.328 56.6827 162.136 56.448C161.965 56.192 161.763 55.9787 161.528 55.808C161.293 55.616 161.016 55.4667 160.696 55.36C160.397 55.2533 160.056 55.2 159.672 55.2C159.181 55.2 158.744 55.2853 158.36 55.456C157.976 55.6267 157.656 55.8613 157.4 56.16C157.144 56.4373 156.941 56.768 156.792 57.152C156.664 57.5147 156.568 57.888 156.504 58.272ZM173.986 68C173.069 68 172.29 67.808 171.65 67.424C171.01 67.04 170.509 66.528 170.146 65.888C169.783 65.248 169.602 64.5547 169.602 63.808C169.602 63.0827 169.783 62.432 170.146 61.856C170.53 61.2587 171.042 60.7573 171.682 60.352L177.538 56.448C177.645 56.384 177.719 56.32 177.762 56.256C177.805 56.1707 177.826 56.1067 177.826 56.064C177.826 55.9573 177.783 55.872 177.698 55.808C177.613 55.7227 177.506 55.68 177.378 55.68H170.338L170.306 51.584H179.106C179.959 51.584 180.695 51.7867 181.314 52.192C181.954 52.576 182.455 53.088 182.818 53.728C183.202 54.368 183.394 55.0613 183.394 55.808C183.394 56.512 183.213 57.1733 182.85 57.792C182.509 58.3893 182.039 58.8907 181.442 59.296L175.586 63.136C175.501 63.2 175.437 63.264 175.394 63.328C175.351 63.392 175.33 63.456 175.33 63.52C175.33 63.6267 175.373 63.7227 175.458 63.808C175.543 63.872 175.65 63.904 175.778 63.904H183.074V68H173.986ZM203.091 68.384C201.726 68.384 200.488 68.1707 199.379 67.744C198.291 67.3173 197.374 66.7093 196.627 65.92C195.88 65.1093 195.304 64.16 194.899 63.072C194.494 61.984 194.291 60.8 194.291 59.52C194.291 57.856 194.622 56.4053 195.283 55.168C195.966 53.9307 196.894 52.96 198.067 52.256C199.262 51.552 200.627 51.2 202.163 51.2C202.824 51.2 203.443 51.2853 204.019 51.456C204.616 51.6267 205.15 51.8827 205.619 52.224C206.11 52.544 206.515 52.928 206.835 53.376H206.931V44.64H211.891V59.488C211.891 61.28 211.528 62.848 210.803 64.192C210.078 65.536 209.054 66.5707 207.731 67.296C206.43 68.0213 204.883 68.384 203.091 68.384ZM203.091 64.096C203.859 64.096 204.52 63.9147 205.075 63.552C205.651 63.168 206.088 62.656 206.387 62.016C206.686 61.3547 206.835 60.6187 206.835 59.808C206.835 58.9973 206.686 58.272 206.387 57.632C206.088 56.992 205.651 56.4907 205.075 56.128C204.52 55.744 203.859 55.552 203.091 55.552C202.344 55.552 201.683 55.744 201.107 56.128C200.531 56.4907 200.094 56.992 199.795 57.632C199.496 58.272 199.347 58.9973 199.347 59.808C199.347 60.6187 199.496 61.3547 199.795 62.016C200.094 62.656 200.531 63.168 201.107 63.552C201.683 63.9147 202.344 64.096 203.091 64.096ZM222.057 68.384C220.607 68.384 219.327 68.0107 218.217 67.264C217.108 66.5173 216.244 65.5147 215.625 64.256C215.007 62.976 214.697 61.536 214.697 59.936C214.697 58.272 215.06 56.7893 215.785 55.488C216.511 54.1653 217.535 53.12 218.857 52.352C220.201 51.584 221.78 51.2 223.593 51.2C225.428 51.2 226.985 51.584 228.265 52.352C229.567 53.0987 230.559 54.1333 231.241 55.456C231.945 56.7573 232.297 58.2187 232.297 59.84V68H227.433V65.376H227.305C227.007 65.952 226.623 66.4747 226.153 66.944C225.684 67.392 225.108 67.744 224.425 68C223.764 68.256 222.975 68.384 222.057 68.384ZM223.529 64.096C224.276 64.096 224.927 63.9147 225.481 63.552C226.057 63.168 226.495 62.6453 226.793 61.984C227.092 61.3227 227.241 60.5867 227.241 59.776C227.241 58.9867 227.092 58.272 226.793 57.632C226.495 56.992 226.057 56.4907 225.481 56.128C224.927 55.744 224.276 55.552 223.529 55.552C222.761 55.552 222.089 55.744 221.513 56.128C220.937 56.4907 220.5 56.992 220.201 57.632C219.903 58.272 219.753 58.9867 219.753 59.776C219.753 60.5867 219.903 61.3227 220.201 61.984C220.5 62.6453 220.937 63.168 221.513 63.552C222.089 63.9147 222.761 64.096 223.529 64.096ZM235.965 68V58.56C235.965 57.1947 236.296 55.9573 236.957 54.848C237.619 53.7387 238.557 52.8533 239.773 52.192C241.011 51.5307 242.472 51.2 244.157 51.2C245.864 51.2 247.315 51.5307 248.509 52.192C249.725 52.8533 250.653 53.7387 251.293 54.848C251.933 55.9573 252.253 57.1947 252.253 58.56V68H247.293V58.688C247.293 58.112 247.155 57.5893 246.877 57.12C246.6 56.6293 246.216 56.2453 245.725 55.968C245.256 55.6693 244.723 55.52 244.125 55.52C243.507 55.52 242.952 55.6693 242.461 55.968C241.992 56.2453 241.619 56.6293 241.341 57.12C241.064 57.5893 240.925 58.112 240.925 58.688V68H235.965ZM255.997 68V64.064H263.901C264.115 64.064 264.307 64.0213 264.477 63.936C264.648 63.8293 264.787 63.6907 264.893 63.52C265 63.3493 265.053 63.168 265.053 62.976C265.053 62.7627 265 62.5707 264.893 62.4C264.787 62.2293 264.648 62.1013 264.477 62.016C264.307 61.9093 264.115 61.856 263.901 61.856H261.021C259.955 61.856 258.984 61.6853 258.109 61.344C257.256 60.9813 256.573 60.4267 256.061 59.68C255.571 58.912 255.325 57.92 255.325 56.704C255.325 55.7653 255.549 54.912 255.997 54.144C256.467 53.376 257.096 52.7573 257.885 52.288C258.696 51.8187 259.581 51.584 260.541 51.584H268.445V55.552H261.309C261.011 55.552 260.755 55.648 260.541 55.84C260.349 56.032 260.253 56.2667 260.253 56.544C260.253 56.8427 260.349 57.0987 260.541 57.312C260.755 57.504 261.011 57.6 261.309 57.6H264.125C265.32 57.6 266.344 57.7813 267.197 58.144C268.072 58.4853 268.744 59.04 269.213 59.808C269.704 60.576 269.949 61.568 269.949 62.784C269.949 63.744 269.704 64.6187 269.213 65.408C268.744 66.1973 268.104 66.8267 267.293 67.296C266.504 67.7653 265.608 68 264.605 68H255.997ZM281.403 68V44.64H286.363V68H281.403ZM290.645 55.904L292.309 51.104C291.69 50.8693 291.221 50.4853 290.901 49.952C290.581 49.3973 290.421 48.832 290.421 48.256C290.421 47.3813 290.719 46.656 291.317 46.08C291.935 45.4827 292.661 45.184 293.493 45.184C294.431 45.184 295.178 45.504 295.733 46.144C296.309 46.784 296.597 47.5413 296.597 48.416C296.597 48.992 296.543 49.536 296.437 50.048C296.33 50.5387 296.159 51.104 295.925 51.744L294.453 55.904H290.645ZM305.214 68.384C303.763 68.384 302.483 68.0107 301.374 67.264C300.264 66.5173 299.4 65.5147 298.782 64.256C298.163 62.976 297.854 61.536 297.854 59.936C297.854 58.272 298.216 56.7893 298.942 55.488C299.667 54.1653 300.691 53.12 302.014 52.352C303.358 51.584 304.936 51.2 306.75 51.2C308.584 51.2 310.142 51.584 311.422 52.352C312.723 53.0987 313.715 54.1333 314.398 55.456C315.102 56.7573 315.454 58.2187 315.454 59.84V68H310.59V65.376H310.462C310.163 65.952 309.779 66.4747 309.31 66.944C308.84 67.392 308.264 67.744 307.582 68C306.92 68.256 306.131 68.384 305.214 68.384ZM306.686 64.096C307.432 64.096 308.083 63.9147 308.638 63.552C309.214 63.168 309.651 62.6453 309.95 61.984C310.248 61.3227 310.398 60.5867 310.398 59.776C310.398 58.9867 310.248 58.272 309.95 57.632C309.651 56.992 309.214 56.4907 308.638 56.128C308.083 55.744 307.432 55.552 306.686 55.552C305.918 55.552 305.246 55.744 304.67 56.128C304.094 56.4907 303.656 56.992 303.358 57.632C303.059 58.272 302.91 58.9867 302.91 59.776C302.91 60.5867 303.059 61.3227 303.358 61.984C303.656 62.6453 304.094 63.168 304.67 63.552C305.246 63.9147 305.918 64.096 306.686 64.096ZM318.994 68V56.416C318.994 54.9227 319.42 53.7493 320.274 52.896C321.127 52.0427 322.311 51.616 323.826 51.616H328.594V55.648H325.042C324.743 55.648 324.487 55.7547 324.274 55.968C324.06 56.16 323.954 56.416 323.954 56.736V68H318.994ZM339.385 68C337.529 68 335.897 67.6587 334.489 66.976C333.081 66.272 331.982 65.312 331.193 64.096C330.425 62.8587 330.041 61.4293 330.041 59.808C330.041 58.016 330.414 56.48 331.161 55.2C331.908 53.92 332.9 52.9387 334.137 52.256C335.396 51.552 336.782 51.2 338.297 51.2C340.025 51.2 341.465 51.5627 342.617 52.288C343.79 53.0133 344.676 54.0053 345.273 55.264C345.87 56.5013 346.169 57.92 346.169 59.52C346.169 59.7973 346.148 60.128 346.105 60.512C346.084 60.8747 346.052 61.1627 346.009 61.376H335.257C335.385 61.9307 335.63 62.4 335.993 62.784C336.356 63.168 336.814 63.456 337.369 63.648C337.924 63.8187 338.542 63.904 339.225 63.904H344.249V68H339.385ZM335.129 58.272H341.369C341.326 57.9307 341.262 57.6 341.177 57.28C341.092 56.96 340.953 56.6827 340.761 56.448C340.59 56.192 340.388 55.9787 340.153 55.808C339.918 55.616 339.641 55.4667 339.321 55.36C339.022 55.2533 338.681 55.2 338.297 55.2C337.806 55.2 337.369 55.2853 336.985 55.456C336.601 55.6267 336.281 55.8613 336.025 56.16C335.769 56.4373 335.566 56.768 335.417 57.152C335.289 57.5147 335.193 57.888 335.129 58.272ZM336.537 49.536L333.753 45.472H338.169L340.953 49.536H336.537ZM348.84 68V58.56C348.84 57.1947 349.171 55.9573 349.832 54.848C350.494 53.7387 351.432 52.8533 352.648 52.192C353.886 51.5307 355.347 51.2 357.032 51.2C358.739 51.2 360.19 51.5307 361.384 52.192C362.6 52.8533 363.528 53.7387 364.168 54.848C364.808 55.9573 365.128 57.1947 365.128 58.56V68H360.168V58.688C360.168 58.112 360.03 57.5893 359.752 57.12C359.475 56.6293 359.091 56.2453 358.6 55.968C358.131 55.6693 357.598 55.52 357 55.52C356.382 55.52 355.827 55.6693 355.336 55.968C354.867 56.2453 354.494 56.6293 354.216 57.12C353.939 57.5893 353.8 58.112 353.8 58.688V68H348.84ZM377.416 68C375.56 68 373.928 67.6587 372.52 66.976C371.112 66.272 370.014 65.312 369.224 64.096C368.456 62.8587 368.072 61.4293 368.072 59.808C368.072 58.016 368.446 56.48 369.192 55.2C369.939 53.92 370.931 52.9387 372.168 52.256C373.427 51.552 374.814 51.2 376.328 51.2C378.056 51.2 379.496 51.5627 380.648 52.288C381.822 53.0133 382.707 54.0053 383.304 55.264C383.902 56.5013 384.2 57.92 384.2 59.52C384.2 59.7973 384.179 60.128 384.136 60.512C384.115 60.8747 384.083 61.1627 384.04 61.376H373.288C373.416 61.9307 373.662 62.4 374.024 62.784C374.387 63.168 374.846 63.456 375.4 63.648C375.955 63.8187 376.574 63.904 377.256 63.904H382.28V68H377.416ZM373.16 58.272H379.4C379.358 57.9307 379.294 57.6 379.208 57.28C379.123 56.96 378.984 56.6827 378.792 56.448C378.622 56.192 378.419 55.9787 378.184 55.808C377.95 55.616 377.672 55.4667 377.352 55.36C377.054 55.2533 376.712 55.2 376.328 55.2C375.838 55.2 375.4 55.2853 375.016 55.456C374.632 55.6267 374.312 55.8613 374.056 56.16C373.8 56.4373 373.598 56.768 373.448 57.152C373.32 57.5147 373.224 57.888 373.16 58.272ZM403.591 68.384C402.226 68.384 400.988 68.1707 399.879 67.744C398.791 67.3173 397.874 66.7093 397.127 65.92C396.38 65.1093 395.804 64.16 395.399 63.072C394.994 61.984 394.791 60.8 394.791 59.52C394.791 57.856 395.122 56.4053 395.783 55.168C396.466 53.9307 397.394 52.96 398.567 52.256C399.762 51.552 401.127 51.2 402.663 51.2C403.324 51.2 403.943 51.2853 404.519 51.456C405.116 51.6267 405.65 51.8827 406.119 52.224C406.61 52.544 407.015 52.928 407.335 53.376H407.431V44.64H412.391V59.488C412.391 61.28 412.028 62.848 411.303 64.192C410.578 65.536 409.554 66.5707 408.231 67.296C406.93 68.0213 405.383 68.384 403.591 68.384ZM403.591 64.096C404.359 64.096 405.02 63.9147 405.575 63.552C406.151 63.168 406.588 62.656 406.887 62.016C407.186 61.3547 407.335 60.6187 407.335 59.808C407.335 58.9973 407.186 58.272 406.887 57.632C406.588 56.992 406.151 56.4907 405.575 56.128C405.02 55.744 404.359 55.552 403.591 55.552C402.844 55.552 402.183 55.744 401.607 56.128C401.031 56.4907 400.594 56.992 400.295 57.632C399.996 58.272 399.847 58.9973 399.847 59.808C399.847 60.6187 399.996 61.3547 400.295 62.016C400.594 62.656 401.031 63.168 401.607 63.552C402.183 63.9147 402.844 64.096 403.591 64.096ZM424.541 68C422.685 68 421.053 67.6587 419.645 66.976C418.237 66.272 417.139 65.312 416.349 64.096C415.581 62.8587 415.197 61.4293 415.197 59.808C415.197 58.016 415.571 56.48 416.317 55.2C417.064 53.92 418.056 52.9387 419.293 52.256C420.552 51.552 421.939 51.2 423.453 51.2C425.181 51.2 426.621 51.5627 427.773 52.288C428.947 53.0133 429.832 54.0053 430.429 55.264C431.027 56.5013 431.325 57.92 431.325 59.52C431.325 59.7973 431.304 60.128 431.261 60.512C431.24 60.8747 431.208 61.1627 431.165 61.376H420.413C420.541 61.9307 420.787 62.4 421.149 62.784C421.512 63.168 421.971 63.456 422.525 63.648C423.08 63.8187 423.699 63.904 424.381 63.904H429.405V68H424.541ZM420.285 58.272H426.525C426.483 57.9307 426.419 57.6 426.333 57.28C426.248 56.96 426.109 56.6827 425.917 56.448C425.747 56.192 425.544 55.9787 425.309 55.808C425.075 55.616 424.797 55.4667 424.477 55.36C424.179 55.2533 423.837 55.2 423.453 55.2C422.963 55.2 422.525 55.2853 422.141 55.456C421.757 55.6267 421.437 55.8613 421.181 56.16C420.925 56.4373 420.723 56.768 420.573 57.152C420.445 57.5147 420.349 57.888 420.285 58.272ZM421.693 49.536L418.909 45.472H423.325L426.109 49.536H421.693ZM434.029 68V64.064H441.933C442.146 64.064 442.338 64.0213 442.509 63.936C442.679 63.8293 442.818 63.6907 442.925 63.52C443.031 63.3493 443.085 63.168 443.085 62.976C443.085 62.7627 443.031 62.5707 442.925 62.4C442.818 62.2293 442.679 62.1013 442.509 62.016C442.338 61.9093 442.146 61.856 441.933 61.856H439.053C437.986 61.856 437.015 61.6853 436.141 61.344C435.287 60.9813 434.605 60.4267 434.093 59.68C433.602 58.912 433.357 57.92 433.357 56.704C433.357 55.7653 433.581 54.912 434.029 54.144C434.498 53.376 435.127 52.7573 435.917 52.288C436.727 51.8187 437.613 51.584 438.573 51.584H446.477V55.552H439.341C439.042 55.552 438.786 55.648 438.573 55.84C438.381 56.032 438.285 56.2667 438.285 56.544C438.285 56.8427 438.381 57.0987 438.573 57.312C438.786 57.504 439.042 57.6 439.341 57.6H442.157C443.351 57.6 444.375 57.7813 445.229 58.144C446.103 58.4853 446.775 59.04 447.245 59.808C447.735 60.576 447.981 61.568 447.981 62.784C447.981 63.744 447.735 64.6187 447.245 65.408C446.775 66.1973 446.135 66.8267 445.325 67.296C444.535 67.7653 443.639 68 442.637 68H434.029ZM459.434 68V58.304C459.434 56.96 459.743 55.7547 460.362 54.688C461.002 53.6 461.909 52.7467 463.082 52.128C464.255 51.5093 465.653 51.2 467.274 51.2C468.085 51.2 468.831 51.296 469.514 51.488C470.197 51.6587 470.815 51.904 471.37 52.224C471.946 52.5227 472.437 52.8853 472.842 53.312H472.906C473.333 52.8853 473.823 52.5227 474.378 52.224C474.954 51.904 475.583 51.6587 476.266 51.488C476.97 51.296 477.727 51.2 478.538 51.2C480.159 51.2 481.557 51.5093 482.73 52.128C483.903 52.7467 484.81 53.6 485.45 54.688C486.09 55.7547 486.41 56.96 486.41 58.304V68H481.418V58.464C481.418 57.9307 481.279 57.4507 481.002 57.024C480.746 56.576 480.394 56.2133 479.946 55.936C479.498 55.6587 478.986 55.52 478.41 55.52C477.834 55.52 477.311 55.6587 476.842 55.936C476.394 56.2133 476.042 56.576 475.786 57.024C475.53 57.4507 475.402 57.9307 475.402 58.464V68H470.442V58.464C470.442 57.9307 470.303 57.4507 470.026 57.024C469.77 56.576 469.407 56.2133 468.938 55.936C468.49 55.6587 467.978 55.52 467.402 55.52C466.826 55.52 466.303 55.6587 465.834 55.936C465.386 56.2133 465.034 56.576 464.778 57.024C464.522 57.4507 464.394 57.9307 464.394 58.464V68H459.434ZM496.682 68.384C495.232 68.384 493.952 68.0107 492.842 67.264C491.733 66.5173 490.869 65.5147 490.25 64.256C489.632 62.976 489.322 61.536 489.322 59.936C489.322 58.272 489.685 56.7893 490.41 55.488C491.136 54.1653 492.16 53.12 493.482 52.352C494.826 51.584 496.405 51.2 498.218 51.2C500.053 51.2 501.61 51.584 502.89 52.352C504.192 53.0987 505.184 54.1333 505.866 55.456C506.57 56.7573 506.922 58.2187 506.922 59.84V68H502.058V65.376H501.93C501.632 65.952 501.248 66.4747 500.778 66.944C500.309 67.392 499.733 67.744 499.05 68C498.389 68.256 497.6 68.384 496.682 68.384ZM498.154 64.096C498.901 64.096 499.552 63.9147 500.106 63.552C500.682 63.168 501.12 62.6453 501.418 61.984C501.717 61.3227 501.866 60.5867 501.866 59.776C501.866 58.9867 501.717 58.272 501.418 57.632C501.12 56.992 500.682 56.4907 500.106 56.128C499.552 55.744 498.901 55.552 498.154 55.552C497.386 55.552 496.714 55.744 496.138 56.128C495.562 56.4907 495.125 56.992 494.826 57.632C494.528 58.272 494.378 58.9867 494.378 59.776C494.378 60.5867 494.528 61.3227 494.826 61.984C495.125 62.6453 495.562 63.168 496.138 63.552C496.714 63.9147 497.386 64.096 498.154 64.096ZM510.59 68V51.584H515.582V68H510.59ZM513.086 49.728C512.297 49.728 511.614 49.44 511.038 48.864C510.462 48.288 510.174 47.6053 510.174 46.816C510.174 46.0267 510.462 45.344 511.038 44.768C511.614 44.1707 512.297 43.872 513.086 43.872C513.876 43.872 514.558 44.1707 515.134 44.768C515.71 45.344 515.998 46.0267 515.998 46.816C515.998 47.6053 515.71 48.288 515.134 48.864C514.558 49.44 513.876 49.728 513.086 49.728ZM519.215 68V58.56C519.215 57.1947 519.546 55.9573 520.207 54.848C520.869 53.7387 521.807 52.8533 523.023 52.192C524.261 51.5307 525.722 51.2 527.407 51.2C529.114 51.2 530.565 51.5307 531.759 52.192C532.975 52.8533 533.903 53.7387 534.543 54.848C535.183 55.9573 535.503 57.1947 535.503 58.56V68H530.543V58.688C530.543 58.112 530.405 57.5893 530.127 57.12C529.85 56.6293 529.466 56.2453 528.975 55.968C528.506 55.6693 527.973 55.52 527.375 55.52C526.757 55.52 526.202 55.6693 525.711 55.968C525.242 56.2453 524.869 56.6293 524.591 57.12C524.314 57.5893 524.175 58.112 524.175 58.688V68H519.215ZM545.231 68C543.717 68 542.533 67.5733 541.679 66.72C540.826 65.8453 540.399 64.672 540.399 63.2V47.584H545.391V62.912C545.391 63.168 545.477 63.392 545.647 63.584C545.839 63.7547 546.063 63.84 546.319 63.84H549.903V68H545.231ZM537.711 55.648V51.584H549.903V55.648H537.711ZM560.948 68C559.092 68 557.46 67.6587 556.052 66.976C554.644 66.272 553.545 65.312 552.756 64.096C551.988 62.8587 551.604 61.4293 551.604 59.808C551.604 58.016 551.977 56.48 552.724 55.2C553.47 53.92 554.462 52.9387 555.7 52.256C556.958 51.552 558.345 51.2 559.86 51.2C561.588 51.2 563.028 51.5627 564.18 52.288C565.353 53.0133 566.238 54.0053 566.836 55.264C567.433 56.5013 567.732 57.92 567.732 59.52C567.732 59.7973 567.71 60.128 567.668 60.512C567.646 60.8747 567.614 61.1627 567.572 61.376H556.82C556.948 61.9307 557.193 62.4 557.556 62.784C557.918 63.168 558.377 63.456 558.932 63.648C559.486 63.8187 560.105 63.904 560.788 63.904H565.812V68H560.948ZM556.692 58.272H562.932C562.889 57.9307 562.825 57.6 562.74 57.28C562.654 56.96 562.516 56.6827 562.324 56.448C562.153 56.192 561.95 55.9787 561.716 55.808C561.481 55.616 561.204 55.4667 560.884 55.36C560.585 55.2533 560.244 55.2 559.86 55.2C559.369 55.2 558.932 55.2853 558.548 55.456C558.164 55.6267 557.844 55.8613 557.588 56.16C557.332 56.4373 557.129 56.768 556.98 57.152C556.852 57.5147 556.756 57.888 556.692 58.272ZM570.622 68V58.56C570.622 57.1947 570.952 55.9573 571.614 54.848C572.275 53.7387 573.214 52.8533 574.43 52.192C575.667 51.5307 577.128 51.2 578.814 51.2C580.52 51.2 581.971 51.5307 583.166 52.192C584.382 52.8533 585.31 53.7387 585.95 54.848C586.59 55.9573 586.91 57.1947 586.91 58.56V68H581.95V58.688C581.95 58.112 581.811 57.5893 581.534 57.12C581.256 56.6293 580.872 56.2453 580.382 55.968C579.912 55.6693 579.379 55.52 578.782 55.52C578.163 55.52 577.608 55.6693 577.118 55.968C576.648 56.2453 576.275 56.6293 575.998 57.12C575.72 57.5893 575.582 58.112 575.582 58.688V68H570.622ZM597.214 68.384C595.763 68.384 594.483 68.0107 593.374 67.264C592.264 66.5173 591.4 65.5147 590.782 64.256C590.163 62.976 589.854 61.536 589.854 59.936C589.854 58.272 590.216 56.7893 590.942 55.488C591.667 54.1653 592.691 53.12 594.014 52.352C595.358 51.584 596.936 51.2 598.75 51.2C600.584 51.2 602.142 51.584 603.422 52.352C604.723 53.0987 605.715 54.1333 606.398 55.456C607.102 56.7573 607.454 58.2187 607.454 59.84V68H602.59V65.376H602.462C602.163 65.952 601.779 66.4747 601.31 66.944C600.84 67.392 600.264 67.744 599.582 68C598.92 68.256 598.131 68.384 597.214 68.384ZM598.686 64.096C599.432 64.096 600.083 63.9147 600.638 63.552C601.214 63.168 601.651 62.6453 601.95 61.984C602.248 61.3227 602.398 60.5867 602.398 59.776C602.398 58.9867 602.248 58.272 601.95 57.632C601.651 56.992 601.214 56.4907 600.638 56.128C600.083 55.744 599.432 55.552 598.686 55.552C597.918 55.552 597.246 55.744 596.67 56.128C596.094 56.4907 595.656 56.992 595.358 57.632C595.059 58.272 594.91 58.9867 594.91 59.776C594.91 60.5867 595.059 61.3227 595.358 61.984C595.656 62.6453 596.094 63.168 596.67 63.552C597.246 63.9147 597.918 64.096 598.686 64.096ZM611.122 68V58.56C611.122 57.1947 611.452 55.9573 612.114 54.848C612.775 53.7387 613.714 52.8533 614.93 52.192C616.167 51.5307 617.628 51.2 619.314 51.2C621.02 51.2 622.471 51.5307 623.666 52.192C624.882 52.8533 625.81 53.7387 626.45 54.848C627.09 55.9573 627.41 57.1947 627.41 58.56V68H622.45V58.688C622.45 58.112 622.311 57.5893 622.034 57.12C621.756 56.6293 621.372 56.2453 620.882 55.968C620.412 55.6693 619.879 55.52 619.282 55.52C618.663 55.52 618.108 55.6693 617.618 55.968C617.148 56.2453 616.775 56.6293 616.498 57.12C616.22 57.5893 616.082 58.112 616.082 58.688V68H611.122ZM637.138 68C635.623 68 634.439 67.5733 633.586 66.72C632.732 65.8453 632.306 64.672 632.306 63.2V47.584H637.298V62.912C637.298 63.168 637.383 63.392 637.554 63.584C637.746 63.7547 637.97 63.84 638.226 63.84H641.81V68H637.138ZM629.618 55.648V51.584H641.81V55.648H629.618ZM653.629 60.256V45.6H658.493V60.256H653.629ZM656.061 68.384C655.208 68.384 654.472 68.0853 653.853 67.488C653.256 66.8693 652.957 66.144 652.957 65.312C652.957 64.4587 653.256 63.7333 653.853 63.136C654.472 62.5173 655.208 62.208 656.061 62.208C656.893 62.208 657.608 62.5173 658.205 63.136C658.824 63.7333 659.133 64.4587 659.133 65.312C659.133 65.8667 658.994 66.3787 658.717 66.848C658.44 67.3173 658.066 67.6907 657.597 67.968C657.149 68.2453 656.637 68.384 656.061 68.384Z" fill="white"/>
<defs>
<filter id="filter0_f_3_9" x="0" y="15" width="828" height="81" filterUnits="userSpaceOnUse" color-interpolation-filters="sRGB">
<feFlood flood-opacity="0" result="BackgroundImageFix"/>
<feBlend mode="normal" in="SourceGraphic" in2="BackgroundImageFix" result="shape"/>
<feGaussianBlur stdDeviation="5" result="effect1_foregroundBlur_3_9"/>
</filter>
<filter id="filter1_f_3_9" x="722" y="0" width="113" height="113" filterUnits="userSpaceOnUse" color-interpolation-filters="sRGB">
<feFlood flood-opacity="0" result="BackgroundImageFix"/>
<feBlend mode="normal" in="SourceGraphic" in2="BackgroundImageFix" result="shape"/>
<feGaussianBlur stdDeviation="15" result="effect1_foregroundBlur_3_9"/>
</filter>
<filter id="filter2_d_3_9" x="748" y="30" width="61" height="61" filterUnits="userSpaceOnUse" color-interpolation-filters="sRGB">
<feFlood flood-opacity="0" result="BackgroundImageFix"/>
<feColorMatrix in="SourceAlpha" type="matrix" values="0 0 0 0 0 0 0 0 0 0 0 0 0 0 0 0 0 0 127 0" result="hardAlpha"/>
<feOffset dy="4"/>
<feGaussianBlur stdDeviation="2"/>
<feComposite in2="hardAlpha" operator="out"/>
<feColorMatrix type="matrix" values="0 0 0 0 0 0 0 0 0 0 0 0 0 0 0 0 0 0 0.25 0"/>
<feBlend mode="normal" in2="BackgroundImageFix" result="effect1_dropShadow_3_9"/>
<feBlend mode="normal" in="SourceGraphic" in2="effect1_dropShadow_3_9" result="shape"/>
</filter>
<linearGradient id="paint0_linear_3_9" x1="752.041" y1="41.4865" x2="795.732" y2="75.2923" gradientUnits="userSpaceOnUse">
<stop stop-color="#36C1ED"/>
<stop offset="1" stop-color="#D6EAF0"/>
</linearGradient>
<linearGradient id="paint1_linear_3_9" x1="752.041" y1="41.4865" x2="795.732" y2="75.2923" gradientUnits="userSpaceOnUse">
<stop stop-color="#36C1ED"/>
<stop offset="1" stop-color="#D6EAF0"/>
</linearGradient>
</defs>
</svg>
