<svg width="284" height="108" viewBox="0 0 284 108" fill="none" xmlns="http://www.w3.org/2000/svg">
<g filter="url(#filter0_f_7_21)">
<rect x="20" y="20" width="244" height="68" rx="4" fill="#36C1ED"/>
</g>
<rect x="20" y="20" width="244" height="68" rx="4" fill="#36C1ED"/>
<rect x="21" y="21" width="242" height="66" rx="3" stroke="#FFFCFC" stroke-width="2"/>
<path d="M48.7475 63.0889C47.3075 63.0709 45.9935 62.8189 44.8055 62.3329C43.6175 61.8289 42.5915 61.1449 41.7275 60.2809C40.8815 59.4169 40.2245 58.4179 39.7565 57.2839C39.3065 56.1499 39.0815 54.9349 39.0815 53.6389C39.0815 52.3429 39.3065 51.1279 39.7565 49.9939C40.2245 48.8599 40.8815 47.8609 41.7275 46.9969C42.5915 46.1329 43.6175 45.4579 44.8055 44.9719C45.9935 44.4679 47.3075 44.2069 48.7475 44.1889H51.1775V46.4839H48.8285C47.8025 46.4839 46.8575 46.6729 45.9935 47.0509C45.1295 47.4109 44.3735 47.9149 43.7255 48.5629C43.0955 49.1929 42.6005 49.9399 42.2405 50.8039C41.8805 51.6679 41.7005 52.6129 41.7005 53.6389C41.7005 54.6469 41.8805 55.5919 42.2405 56.4739C42.6005 57.3379 43.0955 58.0939 43.7255 58.7419C44.3735 59.3719 45.1295 59.8669 45.9935 60.2269C46.8575 60.5869 47.8025 60.7759 48.8285 60.7939H51.1775V63.0889H48.7475ZM54.0306 63.0889V53.2339C54.0306 52.0099 54.3726 51.0559 55.0566 50.3719C55.7586 49.6699 56.7216 49.3189 57.9456 49.3189H60.7806V51.4519H58.4046C57.8106 51.4519 57.3426 51.6229 57.0006 51.9649C56.6766 52.3069 56.5146 52.7839 56.5146 53.3959V63.0889H54.0306ZM70.0695 63.0889C68.5575 63.0889 67.2165 62.8099 66.0465 62.2519C64.8765 61.6759 63.9585 60.8749 63.2925 59.8489C62.6445 58.8049 62.3205 57.5899 62.3205 56.2039C62.3205 54.8359 62.5995 53.6119 63.1575 52.5319C63.7155 51.4339 64.4895 50.5699 65.4795 49.9399C66.4695 49.3099 67.6215 48.9949 68.9355 48.9949C70.3575 48.9949 71.5365 49.3009 72.4725 49.9129C73.4265 50.5249 74.1375 51.3529 74.6055 52.3969C75.0735 53.4229 75.3075 54.5749 75.3075 55.8529C75.3075 56.0509 75.2985 56.2579 75.2805 56.4739C75.2805 56.6899 75.2625 56.8789 75.2265 57.0409H64.9665C65.0565 57.8869 65.3355 58.6069 65.8035 59.2009C66.2715 59.7769 66.8655 60.2179 67.5855 60.5239C68.3235 60.8119 69.1335 60.9559 70.0155 60.9559H73.6065V63.0889H70.0695ZM64.9395 55.2859H72.7965C72.7965 54.9439 72.7605 54.5839 72.6885 54.2059C72.6165 53.8099 72.4905 53.4319 72.3105 53.0719C72.1305 52.6939 71.8875 52.3609 71.5815 52.0729C71.2935 51.7669 70.9245 51.5239 70.4745 51.3439C70.0425 51.1639 69.5295 51.0739 68.9355 51.0739C68.3055 51.0739 67.7475 51.1999 67.2615 51.4519C66.7935 51.6859 66.3885 52.0099 66.0465 52.4239C65.7045 52.8199 65.4435 53.2699 65.2635 53.7739C65.0835 54.2779 64.9755 54.7819 64.9395 55.2859ZM67.9635 47.5099L70.4475 44.1889H72.8505L70.3665 47.5099H67.9635ZM85.4679 63.0889C83.9559 63.0889 82.6149 62.8099 81.4449 62.2519C80.2749 61.6759 79.3569 60.8749 78.6909 59.8489C78.0429 58.8049 77.7189 57.5899 77.7189 56.2039C77.7189 54.8359 77.9979 53.6119 78.5559 52.5319C79.1139 51.4339 79.8879 50.5699 80.8779 49.9399C81.8679 49.3099 83.0199 48.9949 84.3339 48.9949C85.7559 48.9949 86.9349 49.3009 87.8709 49.9129C88.8249 50.5249 89.5359 51.3529 90.0039 52.3969C90.4719 53.4229 90.7059 54.5749 90.7059 55.8529C90.7059 56.0509 90.6969 56.2579 90.6789 56.4739C90.6789 56.6899 90.6609 56.8789 90.6249 57.0409H80.3649C80.4549 57.8869 80.7339 58.6069 81.2019 59.2009C81.6699 59.7769 82.2639 60.2179 82.9839 60.5239C83.7219 60.8119 84.5319 60.9559 85.4139 60.9559H89.0049V63.0889H85.4679ZM80.3379 55.2859H88.1949C88.1949 54.9439 88.1589 54.5839 88.0869 54.2059C88.0149 53.8099 87.8889 53.4319 87.7089 53.0719C87.5289 52.6939 87.2859 52.3609 86.9799 52.0729C86.6919 51.7669 86.3229 51.5239 85.8729 51.3439C85.4409 51.1639 84.9279 51.0739 84.3339 51.0739C83.7039 51.0739 83.1459 51.1999 82.6599 51.4519C82.1919 51.6859 81.7869 52.0099 81.4449 52.4239C81.1029 52.8199 80.8419 53.2699 80.6619 53.7739C80.4819 54.2779 80.3739 54.7819 80.3379 55.2859ZM93.7923 63.0889V53.2339C93.7923 52.0099 94.1343 51.0559 94.8183 50.3719C95.5203 49.6699 96.4833 49.3189 97.7073 49.3189H100.542V51.4519H98.1663C97.5723 51.4519 97.1043 51.6229 96.7623 51.9649C96.4383 52.3069 96.2763 52.7839 96.2763 53.3959V63.0889H93.7923ZM116.437 63.4129C115.195 63.4129 114.079 63.1609 113.089 62.6569C112.117 62.1349 111.352 61.4149 110.794 60.4969C110.254 59.5789 109.984 58.5079 109.984 57.2839V49.3189H112.495V57.2569C112.495 58.0849 112.675 58.8049 113.035 59.4169C113.395 60.0109 113.872 60.4699 114.466 60.7939C115.078 61.1179 115.726 61.2799 116.41 61.2799C117.112 61.2799 117.76 61.1179 118.354 60.7939C118.966 60.4699 119.452 60.0109 119.812 59.4169C120.19 58.8049 120.379 58.0849 120.379 57.2569V49.3189H122.89V57.2839C122.89 58.5079 122.611 59.5789 122.053 60.4969C121.495 61.4149 120.73 62.1349 119.758 62.6569C118.786 63.1609 117.679 63.4129 116.437 63.4129ZM126.832 63.0889V55.1239C126.832 53.8999 127.102 52.8289 127.642 51.9109C128.2 50.9929 128.965 50.2819 129.937 49.7779C130.909 49.2559 132.016 48.9949 133.258 48.9949C134.518 48.9949 135.625 49.2559 136.579 49.7779C137.551 50.2819 138.307 50.9929 138.847 51.9109C139.405 52.8289 139.684 53.8999 139.684 55.1239V63.0889H137.2V55.1509C137.2 54.3229 137.011 53.6119 136.633 53.0179C136.273 52.4059 135.787 51.9379 135.175 51.6139C134.581 51.2899 133.942 51.1279 133.258 51.1279C132.574 51.1279 131.926 51.2899 131.314 51.6139C130.72 51.9379 130.234 52.4059 129.856 53.0179C129.496 53.6119 129.316 54.3229 129.316 55.1509V63.0889H126.832ZM157.443 63.0889C156.021 63.0889 154.752 62.7829 153.636 62.1709C152.52 61.5589 151.638 60.7399 150.99 59.7139C150.342 58.6699 150.018 57.4999 150.018 56.2039C150.018 54.9079 150.342 53.7469 150.99 52.7209C151.638 51.6769 152.52 50.8489 153.636 50.2369C154.752 49.6249 156.021 49.3189 157.443 49.3189H159.063V51.4519H157.362C156.444 51.4519 155.616 51.6679 154.878 52.0999C154.158 52.5139 153.582 53.0809 153.15 53.8009C152.736 54.5209 152.529 55.3219 152.529 56.2039C152.529 57.0859 152.736 57.8869 153.15 58.6069C153.582 59.3269 154.158 59.9029 154.878 60.3349C155.616 60.7489 156.444 60.9559 157.362 60.9559H159.063V63.0889H157.443ZM168.381 63.4129C166.977 63.4129 165.735 63.0979 164.655 62.4679C163.575 61.8199 162.72 60.9559 162.09 59.8759C161.46 58.7779 161.145 57.5539 161.145 56.2039C161.145 54.8539 161.46 53.6389 162.09 52.5589C162.72 51.4609 163.575 50.5969 164.655 49.9669C165.735 49.3189 166.977 48.9949 168.381 48.9949C169.785 48.9949 171.027 49.3189 172.107 49.9669C173.205 50.5969 174.06 51.4519 174.672 52.5319C175.302 53.6119 175.617 54.8359 175.617 56.2039C175.617 57.5539 175.302 58.7779 174.672 59.8759C174.06 60.9559 173.205 61.8199 172.107 62.4679C171.027 63.0979 169.785 63.4129 168.381 63.4129ZM168.381 61.2799C169.335 61.2799 170.163 61.0549 170.865 60.6049C171.567 60.1549 172.116 59.5519 172.512 58.7959C172.908 58.0219 173.106 57.1579 173.106 56.2039C173.106 55.2499 172.908 54.3949 172.512 53.6389C172.116 52.8649 171.567 52.2529 170.865 51.8029C170.163 51.3529 169.335 51.1279 168.381 51.1279C167.445 51.1279 166.617 51.3529 165.897 51.8029C165.195 52.2529 164.646 52.8649 164.25 53.6389C163.854 54.3949 163.656 55.2499 163.656 56.2039C163.656 57.1579 163.854 58.0219 164.25 58.7959C164.646 59.5519 165.195 60.1549 165.897 60.6049C166.617 61.0549 167.445 61.2799 168.381 61.2799ZM178.802 63.0889V54.7999C178.802 53.7379 179.045 52.7659 179.531 51.8839C180.017 51.0019 180.719 50.2999 181.637 49.7779C182.555 49.2559 183.662 48.9949 184.958 48.9949C185.588 48.9949 186.218 49.0849 186.848 49.2649C187.478 49.4269 188.063 49.7149 188.603 50.1289C189.143 50.5249 189.575 51.0649 189.899 51.7489H189.926C190.286 51.0649 190.736 50.5249 191.276 50.1289C191.816 49.7149 192.401 49.4269 193.031 49.2649C193.661 49.0849 194.3 48.9949 194.948 48.9949C196.226 48.9949 197.324 49.2559 198.242 49.7779C199.16 50.2999 199.862 51.0019 200.348 51.8839C200.834 52.7659 201.077 53.7379 201.077 54.7999V63.0889H198.593V54.7999C198.593 54.1159 198.431 53.4949 198.107 52.9369C197.783 52.3789 197.342 51.9379 196.784 51.6139C196.244 51.2899 195.623 51.1279 194.921 51.1279C194.237 51.1279 193.607 51.2989 193.031 51.6409C192.455 51.9649 191.996 52.4059 191.654 52.9639C191.33 53.5039 191.168 54.1159 191.168 54.7999V63.0889H188.684V54.7999C188.684 54.1159 188.513 53.5039 188.171 52.9639C187.847 52.4059 187.397 51.9649 186.821 51.6409C186.263 51.2989 185.633 51.1279 184.931 51.1279C184.247 51.1279 183.626 51.2899 183.068 51.6139C182.528 51.9379 182.096 52.3789 181.772 52.9369C181.448 53.4949 181.286 54.1159 181.286 54.7999V63.0889H178.802ZM211.977 48.9949C213.021 48.9949 213.975 49.1659 214.839 49.5079C215.703 49.8319 216.45 50.3179 217.08 50.9659C217.71 51.6139 218.196 52.3969 218.538 53.3149C218.898 54.2149 219.078 55.2319 219.078 56.3659C219.078 57.7879 218.781 59.0299 218.187 60.0919C217.611 61.1539 216.819 61.9729 215.811 62.5489C214.803 63.1249 213.66 63.4129 212.382 63.4129C211.68 63.4129 211.005 63.2959 210.357 63.0619C209.727 62.8279 209.16 62.5039 208.656 62.0899C208.17 61.6579 207.774 61.1719 207.468 60.6319H207.414V69.0289H204.93V56.2849C204.93 54.7369 205.236 53.4229 205.848 52.3429C206.478 51.2629 207.324 50.4349 208.386 49.8589C209.448 49.2829 210.645 48.9949 211.977 48.9949ZM211.977 51.1279C211.149 51.1279 210.384 51.3349 209.682 51.7489C208.998 52.1629 208.449 52.7479 208.035 53.5039C207.639 54.2599 207.441 55.1509 207.441 56.1769C207.441 57.2209 207.639 58.1299 208.035 58.9039C208.449 59.6599 208.998 60.2449 209.682 60.6589C210.384 61.0729 211.158 61.2799 212.004 61.2799C212.868 61.2799 213.642 61.0639 214.326 60.6319C215.01 60.1999 215.55 59.6059 215.946 58.8499C216.36 58.0939 216.567 57.2119 216.567 56.2039C216.567 55.1599 216.36 54.2599 215.946 53.5039C215.532 52.7479 214.974 52.1629 214.272 51.7489C213.588 51.3349 212.823 51.1279 211.977 51.1279ZM226.426 63.0889C225.202 63.0889 224.239 62.7379 223.537 62.0359C222.853 61.3339 222.511 60.3799 222.511 59.1739V45.8629H224.995V59.0119C224.995 59.6059 225.157 60.0829 225.481 60.4429C225.823 60.7849 226.291 60.9559 226.885 60.9559H229.666V63.0889H226.426ZM220.135 51.4519V49.3189H229.72V51.4519H220.135ZM239.294 63.0889C237.782 63.0889 236.441 62.8099 235.271 62.2519C234.101 61.6759 233.183 60.8749 232.517 59.8489C231.869 58.8049 231.545 57.5899 231.545 56.2039C231.545 54.8359 231.824 53.6119 232.382 52.5319C232.94 51.4339 233.714 50.5699 234.704 49.9399C235.694 49.3099 236.846 48.9949 238.16 48.9949C239.582 48.9949 240.761 49.3009 241.697 49.9129C242.651 50.5249 243.362 51.3529 243.83 52.3969C244.298 53.4229 244.532 54.5749 244.532 55.8529C244.532 56.0509 244.523 56.2579 244.505 56.4739C244.505 56.6899 244.487 56.8789 244.451 57.0409H234.191C234.281 57.8869 234.56 58.6069 235.028 59.2009C235.496 59.7769 236.09 60.2179 236.81 60.5239C237.548 60.8119 238.358 60.9559 239.24 60.9559H242.831V63.0889H239.294ZM234.164 55.2859H242.021C242.021 54.9439 241.985 54.5839 241.913 54.2059C241.841 53.8099 241.715 53.4319 241.535 53.0719C241.355 52.6939 241.112 52.3609 240.806 52.0729C240.518 51.7669 240.149 51.5239 239.699 51.3439C239.267 51.1639 238.754 51.0739 238.16 51.0739C237.53 51.0739 236.972 51.1999 236.486 51.4519C236.018 51.6859 235.613 52.0099 235.271 52.4239C234.929 52.8199 234.668 53.2699 234.488 53.7739C234.308 54.2779 234.2 54.7819 234.164 55.2859Z" fill="white"/>
<defs>
<filter id="filter0_f_7_21" x="0" y="0" width="284" height="108" filterUnits="userSpaceOnUse" color-interpolation-filters="sRGB">
<feFlood flood-opacity="0" result="BackgroundImageFix"/>
<feBlend mode="normal" in="SourceGraphic" in2="BackgroundImageFix" result="shape"/>
<feGaussianBlur stdDeviation="10" result="effect1_foregroundBlur_7_21"/>
</filter>
</defs>
</svg>
