<svg width="200" height="199" viewBox="0 0 200 199" fill="none" xmlns="http://www.w3.org/2000/svg">
<path d="M84.0273 138.093L45.4546 99.8234L58.3091 87.0727L84.0273 112.574L135.446 61.5623L148.309 74.322L84.0273 138.093Z" fill="#36C1ED"/>
<path fill-rule="evenodd" clip-rule="evenodd" d="M0 99.1921C0 44.411 44.7727 0 100 0C155.227 0 200 44.411 200 99.1921C200 153.973 155.227 198.384 100 198.384C44.7727 198.384 0 153.973 0 99.1921ZM100 180.349C89.2555 180.349 78.6162 178.25 68.6895 174.172C58.7629 170.093 49.7433 164.115 42.1458 156.579C34.5483 149.043 28.5216 140.096 24.4099 130.25C20.2981 120.403 18.1818 109.85 18.1818 99.1921C18.1818 88.5344 20.2981 77.981 24.4099 68.1346C28.5216 58.2882 34.5483 49.3415 42.1458 41.8053C49.7433 34.2692 58.7629 28.2912 68.6895 24.2126C78.6162 20.1341 89.2555 18.0349 100 18.0349C121.7 18.0349 142.51 26.5854 157.854 41.8053C173.198 57.0252 181.818 77.6679 181.818 99.1921C181.818 120.716 173.198 141.359 157.854 156.579C142.51 171.799 121.7 180.349 100 180.349Z" fill="#36C1ED"/>
</svg>
