<svg width="101" height="79" viewBox="0 0 101 79" fill="none" xmlns="http://www.w3.org/2000/svg">
<path d="M85.3354 6.77028C78.9625 3.72573 72.0625 1.51598 64.875 0.23924C64.812 0.237174 64.7493 0.249294 64.6913 0.274747C64.6334 0.300199 64.5816 0.338367 64.5396 0.386557C63.6771 2.00704 62.6708 4.11858 62 5.73906C54.3764 4.56053 46.6235 4.56053 39 5.73906C38.3292 4.06947 37.3229 2.00704 36.4125 0.386557C36.3646 0.288346 36.2208 0.23924 36.0771 0.23924C28.8896 1.51598 22.0375 3.72573 15.6167 6.77028C15.5687 6.77028 15.5208 6.81939 15.4729 6.86849C2.43958 26.8545 -1.15417 46.3003 0.618742 65.5496C0.618742 65.6479 0.666659 65.7461 0.762492 65.7952C9.38749 72.2771 17.6771 76.2056 25.8708 78.8081C26.0146 78.8573 26.1583 78.8081 26.2062 78.7099C28.1229 76.0091 29.8479 73.161 31.3333 70.1656C31.4292 69.9691 31.3333 69.7727 31.1417 69.7236C28.4104 68.6433 25.8229 67.3666 23.2833 65.8934C23.0917 65.7952 23.0917 65.5005 23.2354 65.3532C23.7625 64.9604 24.2896 64.5184 24.8167 64.1256C24.9125 64.0274 25.0562 64.0274 25.1521 64.0765C41.6354 71.786 59.4125 71.786 75.7042 64.0765C75.8 64.0274 75.9437 64.0274 76.0396 64.1256C76.5667 64.5675 77.0937 64.9604 77.6208 65.4023C77.8125 65.5496 77.8125 65.8443 77.5729 65.9425C75.0812 67.4648 72.4458 68.6924 69.7146 69.7727C69.5229 69.8218 69.475 70.0674 69.5229 70.2147C71.0562 73.2101 72.7812 76.0582 74.65 78.759C74.7937 78.8081 74.9375 78.8573 75.0812 78.8081C83.3229 76.2056 91.6125 72.2771 100.237 65.7952C100.333 65.7461 100.381 65.6479 100.381 65.5496C102.49 43.3048 96.8833 24.0063 85.5271 6.86849C85.4791 6.81939 85.4312 6.77028 85.3354 6.77028ZM33.825 53.8134C28.8896 53.8134 24.7687 49.1484 24.7687 43.403C24.7687 37.6577 28.7937 32.9927 33.825 32.9927C38.9042 32.9927 42.9292 37.7068 42.8812 43.403C42.8812 49.1484 38.8562 53.8134 33.825 53.8134ZM67.2229 53.8134C62.2875 53.8134 58.1667 49.1484 58.1667 43.403C58.1667 37.6577 62.1917 32.9927 67.2229 32.9927C72.3021 32.9927 76.3271 37.7068 76.2792 43.403C76.2792 49.1484 72.3021 53.8134 67.2229 53.8134Z" fill="#D6EAF0"/>
</svg>
