<svg width="110" height="110" viewBox="0 0 110 110" fill="none" xmlns="http://www.w3.org/2000/svg">
<path d="M35.7498 9.16675H74.2498C88.9165 9.16675 100.833 21.0834 100.833 35.7501V74.2501C100.833 81.3004 98.0324 88.062 93.0471 93.0473C88.0618 98.0327 81.3002 100.833 74.2498 100.833H35.7498C21.0832 100.833 9.1665 88.9168 9.1665 74.2501V35.7501C9.1665 28.6997 11.9672 21.9382 16.9526 16.9528C21.9379 11.9675 28.6995 9.16675 35.7498 9.16675ZM34.8332 18.3334C30.4571 18.3334 26.2603 20.0718 23.1659 23.1662C20.0716 26.2605 18.3332 30.4573 18.3332 34.8334V75.1667C18.3332 84.2876 25.7123 91.6667 34.8332 91.6667H75.1665C79.5426 91.6667 83.7394 89.9284 86.8338 86.834C89.9281 83.7397 91.6665 79.5428 91.6665 75.1667V34.8334C91.6665 25.7126 84.2873 18.3334 75.1665 18.3334H34.8332ZM79.0623 25.2084C80.5818 25.2084 82.039 25.812 83.1135 26.8864C84.1879 27.9609 84.7915 29.4181 84.7915 30.9376C84.7915 32.4571 84.1879 33.9143 83.1135 34.9887C82.039 36.0631 80.5818 36.6667 79.0623 36.6667C77.5429 36.6667 76.0856 36.0631 75.0112 34.9887C73.9368 33.9143 73.3332 32.4571 73.3332 30.9376C73.3332 29.4181 73.9368 27.9609 75.0112 26.8864C76.0856 25.812 77.5429 25.2084 79.0623 25.2084ZM54.9998 32.0834C61.0777 32.0834 66.9067 34.4978 71.2044 38.7956C75.5021 43.0933 77.9165 48.9222 77.9165 55.0001C77.9165 61.078 75.5021 66.9069 71.2044 71.2046C66.9067 75.5023 61.0777 77.9167 54.9998 77.9167C48.922 77.9167 43.093 75.5023 38.7953 71.2046C34.4976 66.9069 32.0832 61.078 32.0832 55.0001C32.0832 48.9222 34.4976 43.0933 38.7953 38.7956C43.093 34.4978 48.922 32.0834 54.9998 32.0834ZM54.9998 41.2501C51.3531 41.2501 47.8557 42.6987 45.2771 45.2774C42.6985 47.856 41.2498 51.3534 41.2498 55.0001C41.2498 58.6468 42.6985 62.1442 45.2771 64.7228C47.8557 67.3014 51.3531 68.7501 54.9998 68.7501C58.6466 68.7501 62.1439 67.3014 64.7226 64.7228C67.3012 62.1442 68.7498 58.6468 68.7498 55.0001C68.7498 51.3534 67.3012 47.856 64.7226 45.2774C62.1439 42.6987 58.6466 41.2501 54.9998 41.2501Z" fill="#D6EAF0"/>
</svg>
