<svg width="192" height="293" viewBox="0 0 192 293" fill="none" xmlns="http://www.w3.org/2000/svg">
<path d="M10.2203 101.813L59.1775 44.2615L138.468 91.6538L181.189 190.085L138.649 250.422L49.1668 199.679L10.2203 101.813Z" stroke="#304284" stroke-width="20"/>
<path d="M58.7526 34.0552L132.545 76.6591L132.545 247.075L58.7526 204.471L14.0557 93.4573L58.7526 34.0552Z" fill="#36C1ED"/>
<path d="M146.882 84.9364L73.09 42.3325L73.0899 212.748L146.882 255.352L191.579 195.95L146.882 84.9364Z" fill="#36C1ED"/>
<path d="M26.2582 100.052L64.0202 49.5966L141.222 94.169L179.344 188.437L141.186 239.564L64.0562 195.033L26.2582 100.052Z" stroke="#203170" stroke-width="25"/>
<path d="M118.752 178.226C108.791 176.994 100.284 173.766 93.2313 168.542C86.1538 163.26 80.7204 156.145 76.9314 147.197L61.8696 110.869L81.8327 112.816L94.7209 149.982C96.6403 154.515 99.1966 158.123 102.39 160.805C105.647 163.495 109.318 165.093 113.405 165.598C117.428 166.096 120.014 165.272 121.162 163.127C122.287 160.923 121.901 157.584 120.007 153.109L109.753 127.721L102.769 126.45L116.403 117.198L133.099 130.608L127.412 129.905L137.464 154.683C141.203 163.513 141.452 169.959 138.21 174.021C135.008 178.032 128.522 179.434 118.752 178.226Z" fill="#324EB5"/>
<path d="M121.674 178.226C111.713 176.995 103.206 173.767 96.1532 168.543C89.0756 163.261 83.6423 156.146 79.8533 147.197L64.4478 110.816L81.9755 112.984L97.6427 149.983C99.5622 154.516 102.118 158.124 105.312 160.806C108.568 163.496 112.24 165.094 116.327 165.599C120.35 166.096 122.935 165.273 124.084 163.127C125.208 160.923 124.823 157.584 122.929 153.11L112.675 127.721L105.491 126.833L116.167 117.212L136.021 130.609L130.334 129.905L140.386 154.684C144.125 163.514 144.374 169.96 141.132 174.022C137.93 178.033 131.443 179.435 121.674 178.226Z" fill="#203170"/>
<line y1="-1.5" x2="63.3048" y2="-1.5" transform="matrix(0.866025 0.5 -2.20305e-08 1 77.3057 58.3024)" stroke="#36C1ED" stroke-width="3"/>
<line y1="-2" x2="63.3048" y2="-2" transform="matrix(0.866025 0.5 -2.20305e-08 1 73.834 203.108)" stroke="#36C1ED" stroke-width="4"/>
<line y1="-1.5" x2="63.3048" y2="-1.5" transform="matrix(0.458924 -0.583088 0.734431 0.953943 30.9219 93.0639)" stroke="#36C1ED" stroke-width="3"/>
<line y1="-2" x2="63.3048" y2="-2" transform="matrix(-0.458924 -1.11301 -0.734431 0.105895 57.4438 184.366)" stroke="#36C1ED" stroke-width="4"/>
<line y1="-2" x2="63.3048" y2="-2" transform="matrix(-0.458924 -1.11301 -0.734431 0.105895 176.354 176.088)" stroke="#36C1ED" stroke-width="4"/>
<line y1="-1.5" x2="63.3048" y2="-1.5" transform="matrix(0.446563 -0.592609 0.754326 0.938291 149.25 234.211)" stroke="#36C1ED" stroke-width="3"/>
</svg>
